<svg width="48" height="48" viewBox="0 0 48 48" fill="none" xmlns="http://www.w3.org/2000/svg">
<path fill-rule="evenodd" clip-rule="evenodd" d="M39.1 2.7C37.8556 1.76667 36.1444 1.76667 34.9 2.7L32.1 4.8C31.4373 5.29706 31.3029 6.23726 31.8 6.9C32.2971 7.56274 33.2373 7.69706 33.9 7.2L36.7 5.1C36.8778 4.96667 37.1222 4.96667 37.3 5.1L39.5 6.75V22C39.5 22.8284 40.1716 23.5 41 23.5C41.8284 23.5 42.5 22.8284 42.5 22V6.01742C42.5004 5.98414 42.4996 5.95088 42.4978 5.9177C42.4864 5.70687 42.4314 5.50762 42.3418 5.32877C42.2525 5.14995 42.1262 4.98664 41.9645 4.85115C41.939 4.82976 41.9129 4.8092 41.886 4.7895L39.1 2.7Z" fill="#FF498B"/>
<path d="M1.5 25C1.5 23.6193 2.61929 22.5 4 22.5H44C45.3807 22.5 46.5 23.6193 46.5 25V27C46.5 28.3807 45.3807 29.5 44 29.5H4C2.61929 29.5 1.5 28.3807 1.5 27V25Z" stroke="#152C5D" stroke-width="3"/>
<path d="M5.5 29.5H42.5V39C42.5 40.933 40.933 42.5 39 42.5H9C7.067 42.5 5.5 40.933 5.5 39V29.5Z" stroke="#152C5D" stroke-width="3"/>
<path d="M12 44L12 46" stroke="#152C5D" stroke-width="3" stroke-linecap="round"/>
<path d="M36 44L36 46" stroke="#152C5D" stroke-width="3" stroke-linecap="round"/>
</svg>
