<svg width="48" height="48" viewBox="0 0 48 48" fill="none" xmlns="http://www.w3.org/2000/svg">
<path d="M5.07292 20.0939C5.44662 19.133 6.3719 18.5 7.40294 18.5H40.0672C41.0551 18.5 41.9505 19.0818 42.3517 19.9847L44.1295 23.9847C44.8642 25.6379 43.6541 27.5 41.845 27.5H5.84738C4.08897 27.5 2.88004 25.7327 3.51737 24.0939L5.07292 20.0939Z" stroke="#152C5D" stroke-width="3"/>
<path d="M18 13L18 18" stroke="#152C5D" stroke-width="3" stroke-linecap="round"/>
<path d="M30 13L30 18" stroke="#152C5D" stroke-width="3" stroke-linecap="round"/>
<mask id="path-4-inside-1" fill="white">
<path d="M9 46C11.2091 46 13 44.2091 13 42L13 28C13 27.4477 12.5523 27 12 27L6 27C5.44771 27 5 27.4477 5 28L5 42C5 44.2091 6.79086 46 9 46Z"/>
</mask>
<path d="M9 46C11.2091 46 13 44.2091 13 42L13 28C13 27.4477 12.5523 27 12 27L6 27C5.44771 27 5 27.4477 5 28L5 42C5 44.2091 6.79086 46 9 46Z" stroke="#152C5D" stroke-width="6" mask="url(#path-4-inside-1)"/>
<mask id="path-5-inside-2" fill="white">
<path d="M9 46C11.2091 46 13 44.2091 13 42L13 28C13 27.4477 12.5523 27 12 27L6 27C5.44771 27 5 27.4477 5 28L5 42C5 44.2091 6.79086 46 9 46Z"/>
</mask>
<path d="M9 46C11.2091 46 13 44.2091 13 42L13 28C13 27.4477 12.5523 27 12 27L6 27C5.44771 27 5 27.4477 5 28L5 42C5 44.2091 6.79086 46 9 46Z" stroke="#152C5D" stroke-width="6" mask="url(#path-5-inside-2)"/>
<mask id="path-6-inside-3" fill="white">
<path d="M18 14C20.2091 14 22 12.2091 22 10L22 5C22 4.44772 21.5523 4 21 4L15 4C14.4477 4 14 4.44772 14 5L14 10C14 12.2091 15.7909 14 18 14Z"/>
</mask>
<path d="M18 14C20.2091 14 22 12.2091 22 10L22 5C22 4.44772 21.5523 4 21 4L15 4C14.4477 4 14 4.44772 14 5L14 10C14 12.2091 15.7909 14 18 14Z" stroke="#FF498B" stroke-width="6" mask="url(#path-6-inside-3)"/>
<mask id="path-7-inside-4" fill="white">
<path d="M30 14C32.2091 14 34 12.2091 34 10L34 5C34 4.44772 33.5523 4 33 4L27 4C26.4477 4 26 4.44772 26 5L26 10C26 12.2091 27.7909 14 30 14Z"/>
</mask>
<path d="M30 14C32.2091 14 34 12.2091 34 10L34 5C34 4.44772 33.5523 4 33 4L27 4C26.4477 4 26 4.44772 26 5L26 10C26 12.2091 27.7909 14 30 14Z" stroke="#FF498B" stroke-width="6" mask="url(#path-7-inside-4)"/>
<mask id="path-8-inside-5" fill="white">
<path d="M39 46C41.2091 46 43 44.2091 43 42L43 28C43 27.4477 42.5523 27 42 27L36 27C35.4477 27 35 27.4477 35 28L35 42C35 44.2091 36.7909 46 39 46Z"/>
</mask>
<path d="M39 46C41.2091 46 43 44.2091 43 42L43 28C43 27.4477 42.5523 27 42 27L36 27C35.4477 27 35 27.4477 35 28L35 42C35 44.2091 36.7909 46 39 46Z" stroke="#152C5D" stroke-width="6" mask="url(#path-8-inside-5)"/>
</svg>
