<svg width="48" height="48" viewBox="0 0 48 48" fill="none" xmlns="http://www.w3.org/2000/svg">
<path d="M39 29L38.6901 29.4029C35.9251 32.9974 35.9251 38.0026 38.6901 41.5971L39 42" stroke="#152C5D" stroke-width="3" stroke-linecap="round"/>
<path d="M8.00001 29L8.30992 29.4029C11.0749 32.9974 11.0749 38.0026 8.30992 41.5971L8.00001 42" stroke="#152C5D" stroke-width="3" stroke-linecap="round"/>
<path d="M32 29L31.6901 29.4029C28.9251 32.9974 28.9251 38.0026 31.6901 41.5971L32 42" stroke="#152C5D" stroke-width="3" stroke-linecap="round"/>
<path d="M15 29L15.3099 29.4029C18.0749 32.9974 18.0749 38.0026 15.3099 41.5971L15 42" stroke="#152C5D" stroke-width="3" stroke-linecap="round"/>
<path d="M1.5 9C1.5 7.61929 2.61929 6.5 4 6.5H44C45.3807 6.5 46.5 7.61929 46.5 9V21C46.5 22.3807 45.3807 23.5 44 23.5H4C2.61929 23.5 1.5 22.3807 1.5 21V9Z" stroke="#152C5D" stroke-width="3"/>
<path d="M28 12L20 12" stroke="#FF498B" stroke-width="3" stroke-linecap="round"/>
<path d="M46 18L2 18" stroke="#152C5D" stroke-width="3" stroke-linecap="round"/>
</svg>
