<svg width="48" height="48" viewBox="0 0 48 48" fill="none" xmlns="http://www.w3.org/2000/svg">
<mask id="path-1-inside-1" fill="white">
<path fill-rule="evenodd" clip-rule="evenodd" d="M19.2361 10C18.4785 10 17.786 10.428 17.4472 11.1056L15.5 15H8C3.58172 15 0 18.5817 0 23V37C0 41.4183 3.58172 45 8 45H40C44.4183 45 48 41.4183 48 37V23C48 18.5817 44.4183 15 40 15H32L29.5826 10.971C29.2212 10.3686 28.5701 10 27.8676 10H19.2361Z"/>
</mask>
<path d="M17.4472 11.1056L14.7639 9.76393L14.7639 9.76393L17.4472 11.1056ZM15.5 15V18H17.3541L18.1833 16.3416L15.5 15ZM32 15L29.4275 16.5435L30.3014 18H32V15ZM29.5826 10.971L32.1551 9.42752L32.1551 9.42752L29.5826 10.971ZM20.1305 12.4472C19.9611 12.786 19.6148 13 19.2361 13V7C17.3422 7 15.6109 8.07001 14.7639 9.76393L20.1305 12.4472ZM18.1833 16.3416L20.1305 12.4472L14.7639 9.76393L12.8167 13.6584L18.1833 16.3416ZM8 18H15.5V12H8V18ZM3 23C3 20.2386 5.23858 18 8 18V12C1.92487 12 -3 16.9249 -3 23H3ZM3 37V23H-3V37H3ZM8 42C5.23858 42 3 39.7614 3 37H-3C-3 43.0751 1.92487 48 8 48V42ZM40 42H8V48H40V42ZM45 37C45 39.7614 42.7614 42 40 42V48C46.0751 48 51 43.0751 51 37H45ZM45 23V37H51V23H45ZM40 18C42.7614 18 45 20.2386 45 23H51C51 16.9249 46.0751 12 40 12V18ZM32 18H40V12H32V18ZM27.0101 12.5145L29.4275 16.5435L34.5725 13.4565L32.1551 9.42752L27.0101 12.5145ZM27.8676 13C27.5164 13 27.1908 12.8157 27.0101 12.5145L32.1551 9.42752C31.2515 7.92149 29.6239 7 27.8676 7V13ZM19.2361 13H27.8676V7H19.2361V13Z" fill="#152C5D" mask="url(#path-1-inside-1)"/>
<circle cx="25" cy="30" r="6.5" stroke="#FF498B" stroke-width="3"/>
<path d="M40 21L34 21" stroke="#152C5D" stroke-width="3" stroke-linecap="round"/>
</svg>
