<svg width="30" height="25" viewBox="0 0 30 25" fill="none" xmlns="http://www.w3.org/2000/svg">
<path d="M14.0608 1.23667C14.3808 0.361097 15.6192 0.3611 15.9392 1.23668L18.6328 8.60563C18.777 9 19.1522 9.26231 19.572 9.26231L28.014 9.26231C29.011 9.26231 29.394 10.5615 28.5565 11.1024L21.9373 15.3772C21.5449 15.6306 21.3803 16.1218 21.5406 16.5605L24.1152 23.6038C24.4445 24.5048 23.4393 25.3076 22.6335 24.7872L15.5425 20.2077C15.2123 19.9945 14.7877 19.9945 14.4575 20.2077L7.36655 24.7872C6.56071 25.3076 5.55548 24.5048 5.88481 23.6038L8.45939 16.5605C8.61974 16.1218 8.45505 15.6306 8.06268 15.3772L1.44346 11.1024C0.605965 10.5615 0.989009 9.26231 1.98597 9.26231L10.428 9.26231C10.8478 9.26231 11.223 9 11.3672 8.60563L14.0608 1.23667Z" fill="#FFCC46"/>
</svg>
